<svg width="24" height="24" viewBox="0 0 24 24" fill="none" xmlns="http://www.w3.org/2000/svg">
<path d="M4.00008 4L20.0001 20M16.5001 16.756C15.1471 17.485 13.6181 18 12.0001 18C8.47008 18 5.36608 15.548 3.58708 13.779C3.11708 13.312 2.88208 13.079 2.73308 12.62C2.62608 12.293 2.62608 11.707 2.73308 11.38C2.88308 10.921 3.11808 10.687 3.58808 10.22C4.48508 9.328 5.71808 8.264 7.17208 7.427M19.5001 14.634C19.8331 14.341 20.1381 14.052 20.4121 13.78L20.4151 13.777C20.8831 13.311 21.1181 13.077 21.2671 12.621C21.3741 12.294 21.3741 11.707 21.2671 11.38C21.1171 10.922 20.8831 10.688 20.4131 10.221C18.6331 8.452 15.5311 6 12.0001 6C11.6621 6 11.3291 6.022 11.0001 6.064M13.3231 13.5C12.9357 13.842 12.4311 14.0209 11.9148 13.999C11.3985 13.9772 10.9107 13.7564 10.5536 13.3829C10.1965 13.0094 9.99788 12.5122 9.99927 11.9955C10.0007 11.4787 10.202 10.9826 10.5611 10.611" stroke="#B9B9B9" stroke-width="2" stroke-linecap="round" stroke-linejoin="round"/>
</svg>
